<svg xmlns="http://www.w3.org/2000/svg" xmlns:xlink="http://www.w3.org/1999/xlink" viewBox="0 0 428 522">
  <defs>
    <style>
      .cls-1 {
        fill: url(#Sky);
      }

      .cls-2 {
        opacity: 0.3;
      }

      .cls-3 {
        fill: #fff;
      }
    </style>
    <linearGradient id="Sky" x1="214" y1="521.5" x2="214" y2="0.5" gradientUnits="userSpaceOnUse">
      <stop offset="0" stop-color="#cce0f4"/>
      <stop offset="0.06" stop-color="#c3dcf2"/>
      <stop offset="0.17" stop-color="#a9d2ee"/>
      <stop offset="0.31" stop-color="#80c2e7"/>
      <stop offset="0.46" stop-color="#47acde"/>
      <stop offset="0.57" stop-color="#1e9cd7"/>
      <stop offset="0.87" stop-color="#0075be"/>
      <stop offset="0.99" stop-color="#005b97"/>
    </linearGradient>
  </defs>
  <g id="arrows">
    <g id="sky-1">
      <rect class="cls-1" x="0.5" y="0.5" width="427" height="521"/>
      <path d="M427,1V521H1V1H427m1-1H0V522H428V0Z"/>
    </g>
    <g id="arrows-2" data-name="arrows" class="cls-2">
      <path class="cls-3" d="M70.42,52.84h6.27l-2-6.48a48,48,0,0,1-1.62-7l-1.49-10-7,7.19c-2.07,2.12-4.78,4.94-7.4,8l-7,8.25h8.34c-2.81,17.67.56,34.93,3.83,51.67,3.88,19.83,7.88,40.33.34,59.79L60.81,169l11,4.26,1.81-4.66a78.28,78.28,0,0,0,5.07-28.73c0-12.82-2.46-25.41-4.84-37.58C70.67,85.94,67.38,69.12,70.42,52.84Z"/>
      <path class="cls-3" d="M142.27,189h6.28l-2-6.48a48.91,48.91,0,0,1-1.61-7l-1.49-9.94-7,7.18c-3.07,3.14-5.35,5.61-7.41,8L122,189h8.33c-2.81,17.68.57,34.93,3.84,51.67,3.87,19.83,7.88,40.33.34,59.79l-1.81,4.67,11,4.26,1.8-4.67A78,78,0,0,0,150.55,276c0-12.81-2.46-25.4-4.84-37.58C142.52,222.12,139.23,205.3,142.27,189Z"/>
      <path class="cls-3" d="M229.42,86.85c-3.46-3-7-5.86-9.78-8L213.26,74l-1.57,7.91a37.25,37.25,0,0,1-2.1,6.82l-2.85,6.91h8.39c4.08,16.1-.27,32.86-4.48,49.11-3.18,12.25-6.46,24.92-6.46,37.88A62.4,62.4,0,0,0,211,211.8l1.89,3.67,12-3.5-2.77-5.39c-9.83-19.11-4.8-38.49.52-59,4.36-16.81,8.85-34.13,5.15-52h11.51Z"/>
      <path class="cls-3" d="M255.11,260.1h6.27l-2-6.49a47.66,47.66,0,0,1-1.62-7l-1.49-9.94-7,7.19c-2.07,2.11-4.78,4.93-7.4,8l-7,8.25h8.34c-2.81,17.67.56,34.92,3.83,51.66,3.88,19.83,7.88,40.33.34,59.8l-1.8,4.66,11,4.26,1.8-4.66a78.11,78.11,0,0,0,5.08-28.73c0-12.82-2.46-25.41-4.84-37.59C255.35,293.2,252.07,276.38,255.11,260.1Z"/>
      <path class="cls-3" d="M383,167.72c-3.19-16.3-6.47-33.12-3.44-49.4h6.28l-2-6.49a47.36,47.36,0,0,1-1.62-7l-1.49-9.94-7,7.19c-2.07,2.11-4.78,4.93-7.41,8l-7,8.25h8.34c-2.81,17.67.56,34.92,3.83,51.67,3.87,19.82,7.88,40.32.34,59.79l-1.8,4.66,11,4.26,1.8-4.66a78.11,78.11,0,0,0,5.08-28.73C387.83,192.49,385.37,179.9,383,167.72Z"/>
      <path class="cls-3" d="M74.52,310c-3-3.07-6.11-5.89-8.47-8l-6.73-6-1.53,8.89A42.29,42.29,0,0,1,56,311.81l-2.38,6.67H60.8c3.5,16.2-.26,33-3.91,49.28-2.73,12.2-5.56,24.83-5.56,37.72a70,70,0,0,0,5.86,28.95L59,438.6l11.43-3.87-2.22-5c-8.57-19.3-4-39.7.42-59.43,3.76-16.77,7.63-34.06,4.42-51.81h9.74Z"/>
      <path class="cls-3" d="M175.92,364.19h6.27l-2-6.49a47.53,47.53,0,0,1-1.62-7l-1.49-9.95-7,7.19c-3.07,3.14-5.35,5.61-7.4,8l-7,8.25h8.34c-2.81,17.67.56,34.92,3.83,51.67,3.87,19.82,7.88,40.32.34,59.79l-1.8,4.66,11,4.26,1.8-4.66a78.11,78.11,0,0,0,5.08-28.73c0-12.81-2.46-25.41-4.84-37.59C176.16,397.29,172.88,380.47,175.92,364.19Z"/>
      <path class="cls-3" d="M352.1,349.12c-3.15-3.07-6.4-5.88-8.88-8l-6.62-5.63-1.54,8.56a40.36,40.36,0,0,1-1.91,6.89l-2.52,6.75h7.58c3.68,16.17-.27,32.95-4.09,49.22-2.87,12.22-5.84,24.86-5.84,37.77a67.46,67.46,0,0,0,6.16,29l1.87,4L347.92,474l-2.4-5.13c-8.95-19.24-4.17-39.61.46-59.31,3.94-16.78,8-34.07,4.64-51.85H360.9Z"/>
      <path class="cls-3" d="M302.75,50.88H309l-2-6.49a47.83,47.83,0,0,1-1.62-7l-1.49-10-7,7.19c-2.06,2.11-4.77,4.93-7.4,8l-7,8.25h8.34c-2.81,17.67.56,34.92,3.83,51.66,3.88,19.83,7.89,40.33.35,59.8L293.14,167l11,4.26L306,166.6A78.32,78.32,0,0,0,311,137.87c0-12.81-2.46-25.41-4.84-37.59C303,84,299.71,67.16,302.75,50.88Z"/>
    </g>
  </g>
</svg>
