<svg xmlns="http://www.w3.org/2000/svg" xmlns:xlink="http://www.w3.org/1999/xlink" viewBox="0 0 428 522">
  <defs>
    <style>
      .cls-1 {
        fill: url(#Sky);
      }

      .cls-2 {
        opacity: 0.3;
      }

      .cls-3 {
        fill: #fff;
      }
    </style>
    <linearGradient id="Sky" x1="214" y1="521.5" x2="214" y2="0.5" gradientUnits="userSpaceOnUse">
      <stop offset="0" stop-color="#cce0f4"/>
      <stop offset="0.06" stop-color="#c3dcf2"/>
      <stop offset="0.17" stop-color="#a9d2ee"/>
      <stop offset="0.31" stop-color="#80c2e7"/>
      <stop offset="0.46" stop-color="#47acde"/>
      <stop offset="0.57" stop-color="#1e9cd7"/>
      <stop offset="0.87" stop-color="#0075be"/>
      <stop offset="0.99" stop-color="#005b97"/>
    </linearGradient>
  </defs>
  <g id="clouds">
    <g id="condensation-sky">
      <rect class="cls-1" x="0.5" y="0.5" width="427" height="521"/>
      <path d="M427,1V521H1V1H427m1-1H0V522H428V0Z"/>
    </g>
    <g id="clouds-2" data-name="clouds">
      <g class="cls-2">
        <path class="cls-3" d="M168,136.82a19.63,19.63,0,0,0-8.49,1.94,24.4,24.4,0,0,0-21-12h0a32.12,32.12,0,0,0-64.21,1.41,31.27,31.27,0,0,0,.16,3.22,25,25,0,0,0-20.2,19c-.35,0-.7,0-1.06,0a14.35,14.35,0,1,0,9.59,25,24.94,24.94,0,0,0,30.83.6,21.8,21.8,0,0,0,31-4.69,24.39,24.39,0,0,0,29.2-1A19.75,19.75,0,1,0,168,136.82Z"/>
      </g>
      <g class="cls-2">
        <path class="cls-3" d="M350,216.62a27.33,27.33,0,1,0-49.3-23.53,16.65,16.65,0,0,0-18.9,8,19,19,0,0,0-5.57-.84A18.73,18.73,0,0,0,257.47,219c0,.1,0,.2,0,.3a15.68,15.68,0,1,0,16.41,23.52,20.48,20.48,0,0,0,33,1.22,18.72,18.72,0,0,0,26.38-2.81A14.93,14.93,0,1,0,350,216.62Z"/>
      </g>
      <g class="cls-2">
        <path class="cls-3" d="M196.53,310a6.92,6.92,0,0,0-5.23,2.39A21.41,21.41,0,0,0,176,302.59c0-.06,0-.12,0-.18a15.79,15.79,0,0,0-29.06-8.57,19.17,19.17,0,0,0-10.51-3.12c-.65,0-1.3,0-1.94.1a19.16,19.16,0,0,0-31.85,2,24.42,24.42,0,0,0-17.29,36.54,12.24,12.24,0,1,0,14.69,12c0-.29,0-.57,0-.85a24.35,24.35,0,0,0,6.37.85,25.89,25.89,0,0,0,3.19-.21,21.26,21.26,0,0,0,35.73,3.06,18.41,18.41,0,0,0,19.83-.49,21.44,21.44,0,0,0,29.54-19.84c0-.1,0-.19,0-.28a6.74,6.74,0,0,0,1.91.28,6.93,6.93,0,0,0,0-13.86Z"/>
      </g>
      <g class="cls-2">
        <path class="cls-3" d="M368.84,61.17c-.44,0-.88,0-1.31.06a23.13,23.13,0,0,0-32-28.45c-.52,0-1.05-.06-1.58-.06A20.77,20.77,0,0,0,319,39a7.47,7.47,0,1,0-5.88,12.07h.14a21.76,21.76,0,0,0-.14,2.44,21,21,0,0,0,1.06,6.58,17.14,17.14,0,0,0-4.08-.5,16.92,16.92,0,0,0-11.62,4.59,14.28,14.28,0,0,0-5.85-1.91,23.7,23.7,0,1,0-46.85-6.92,19.85,19.85,0,1,0,13.46,23.86,23.78,23.78,0,0,0,18,.92,14.39,14.39,0,0,0,21.25,9,17,17,0,0,0,28.65-12.45,17.33,17.33,0,0,0-.37-3.56A20.87,20.87,0,0,0,334,74.38c.53,0,1.06,0,1.58-.07a23.11,23.11,0,0,0,20.08.13,13.21,13.21,0,1,0,13.21-13.27Z"/>
      </g>
    </g>
  </g>
</svg>
