<svg xmlns="http://www.w3.org/2000/svg" xmlns:xlink="http://www.w3.org/1999/xlink" viewBox="0 0 428 522">
  <defs>
    <style>
      .cls-1 {
        fill: url(#Sky);
      }

      .cls-2 {
        opacity: 0.3;
      }

      .cls-3 {
        fill: #fff;
      }
    </style>
    <linearGradient id="Sky" x1="214" y1="521.5" x2="214" y2="0.5" gradientUnits="userSpaceOnUse">
      <stop offset="0" stop-color="#cce0f4"/>
      <stop offset="0.06" stop-color="#c3dcf2"/>
      <stop offset="0.17" stop-color="#a9d2ee"/>
      <stop offset="0.31" stop-color="#80c2e7"/>
      <stop offset="0.46" stop-color="#47acde"/>
      <stop offset="0.57" stop-color="#1e9cd7"/>
      <stop offset="0.87" stop-color="#0075be"/>
      <stop offset="0.99" stop-color="#005b97"/>
    </linearGradient>
  </defs>
  <g id="raindrops">
    <g id="precipitation-sky">
      <rect class="cls-1" x="0.5" y="0.5" width="427" height="521"/>
      <path d="M427,1V521H1V1H427m1-1H0V522H428V0Z"/>
    </g>
    <g id="raindrops-2" data-name="raindrops">
      <g class="cls-2">
        <path class="cls-3" d="M50.68,43.54a6.84,6.84,0,0,1-12.24,6.13c-1.7-3.38-1.17-17.61-1.17-17.61S49,40.16,50.68,43.54Z"/>
      </g>
      <g class="cls-2">
        <path class="cls-3" d="M183.16,109.51a6.85,6.85,0,0,1-12.24,6.14c-1.69-3.38-1.17-17.61-1.17-17.61S181.47,106.13,183.16,109.51Z"/>
      </g>
      <g class="cls-2">
        <path class="cls-3" d="M140.5,215a6.85,6.85,0,1,1-12.24,6.14c-1.69-3.38-1.17-17.62-1.17-17.62S138.81,211.61,140.5,215Z"/>
      </g>
      <g class="cls-2">
        <path class="cls-3" d="M122.37,155.72a6.84,6.84,0,1,1-12.24,6.13c-1.69-3.38-1.17-17.61-1.17-17.61S120.68,152.34,122.37,155.72Z"/>
      </g>
      <g class="cls-2">
        <path class="cls-3" d="M38.36,155.72a6.84,6.84,0,1,1-12.24,6.13C24.43,158.47,25,144.24,25,144.24S36.67,152.34,38.36,155.72Z"/>
      </g>
      <g class="cls-2">
        <path class="cls-3" d="M122.37,31.21a6.84,6.84,0,1,1-12.24,6.13C108.44,34,109,19.73,109,19.73S120.68,27.83,122.37,31.21Z"/>
      </g>
      <g class="cls-2">
        <path class="cls-3" d="M200.28,185.69A6.84,6.84,0,0,1,188,191.82c-1.69-3.38-1.17-17.61-1.17-17.61S198.59,182.31,200.28,185.69Z"/>
      </g>
      <g class="cls-2">
        <path class="cls-3" d="M74.49,222.5a6.85,6.85,0,1,1-12.24,6.14C60.56,225.26,61.08,211,61.08,211S72.8,219.12,74.49,222.5Z"/>
      </g>
      <g class="cls-2">
        <path class="cls-3" d="M71.3,306.07a6.85,6.85,0,1,1-12.24,6.14c-1.69-3.38-1.17-17.62-1.17-17.62S69.61,302.69,71.3,306.07Z"/>
      </g>
      <g class="cls-2">
        <path class="cls-3" d="M24.15,263.27a6.85,6.85,0,1,1-12.24,6.14c-1.7-3.38-1.17-17.62-1.17-17.62S22.45,259.89,24.15,263.27Z"/>
      </g>
      <g class="cls-2">
        <path class="cls-3" d="M117.44,274a6.84,6.84,0,0,1-12.24,6.13c-1.7-3.38-1.17-17.61-1.17-17.61S115.75,270.59,117.44,274Z"/>
      </g>
      <g class="cls-2">
        <path class="cls-3" d="M94.93,95a6.85,6.85,0,0,1-12.24,6.14C81,97.77,81.52,83.53,81.52,83.53S93.24,91.63,94.93,95Z"/>
      </g>
      <g class="cls-2">
        <path class="cls-3" d="M17.68,95a6.85,6.85,0,0,1-12.24,6.14c-1.7-3.38-1.17-17.62-1.17-17.62S16,91.63,17.68,95Z"/>
      </g>
      <g class="cls-2">
        <path class="cls-3" d="M197.38,43.54a6.85,6.85,0,0,1-12.25,6.13C183.44,46.29,184,32.06,184,32.06S195.68,40.16,197.38,43.54Z"/>
      </g>
      <g class="cls-2">
        <path class="cls-3" d="M248.74,145a6.85,6.85,0,1,1-12.24,6.14c-1.7-3.38-1.17-17.62-1.17-17.62S247,141.64,248.74,145Z"/>
      </g>
      <g class="cls-2">
        <path class="cls-3" d="M260.05,217.78a6.84,6.84,0,0,1-12.24,6.13c-1.69-3.38-1.17-17.61-1.17-17.61S258.36,214.4,260.05,217.78Z"/>
      </g>
      <g class="cls-2">
        <path class="cls-3" d="M207.39,252.57a6.85,6.85,0,1,1-12.24,6.14c-1.69-3.38-1.17-17.61-1.17-17.61S205.7,249.19,207.39,252.57Z"/>
      </g>
      <g class="cls-2">
        <path class="cls-3" d="M204.36,314.66a6.85,6.85,0,0,1-12.24,6.14c-1.7-3.38-1.18-17.61-1.18-17.61S202.66,311.28,204.36,314.66Z"/>
      </g>
      <g class="cls-2">
        <path class="cls-3" d="M267.16,75.63a6.84,6.84,0,0,1-12.24,6.13c-1.69-3.38-1.17-17.61-1.17-17.61S265.47,72.25,267.16,75.63Z"/>
      </g>
      <g class="cls-2">
        <path class="cls-3" d="M337.54,130.88A6.85,6.85,0,1,1,325.3,137c-1.69-3.38-1.17-17.62-1.17-17.62S335.85,127.5,337.54,130.88Z"/>
      </g>
      <g class="cls-2">
        <path class="cls-3" d="M315.34,194.25a6.84,6.84,0,0,1-12.24,6.13c-1.69-3.38-1.17-17.61-1.17-17.61S313.65,190.87,315.34,194.25Z"/>
      </g>
      <g class="cls-2">
        <path class="cls-3" d="M330.28,274A6.84,6.84,0,0,1,318,280.1c-1.69-3.38-1.17-17.61-1.17-17.61S328.59,270.59,330.28,274Z"/>
      </g>
      <g class="cls-2">
        <path class="cls-3" d="M43.57,437.56a6.85,6.85,0,1,1-12.24,6.14c-1.69-3.38-1.17-17.61-1.17-17.61S41.88,434.18,43.57,437.56Z"/>
      </g>
      <g class="cls-2">
        <path class="cls-3" d="M392.38,409.47a6.84,6.84,0,1,1-12.24,6.13C378.44,412.22,379,398,379,398S390.68,406.09,392.38,409.47Z"/>
      </g>
      <g class="cls-2">
        <path class="cls-3" d="M367.14,336.06a6.84,6.84,0,0,1-12.24,6.13c-1.7-3.38-1.17-17.61-1.17-17.61S365.44,332.68,367.14,336.06Z"/>
      </g>
      <g class="cls-2">
        <path class="cls-3" d="M295.45,336.06a6.84,6.84,0,0,1-12.24,6.13c-1.7-3.38-1.18-17.61-1.18-17.61S293.75,332.68,295.45,336.06Z"/>
      </g>
      <g class="cls-2">
        <path class="cls-3" d="M374.25,225.69A6.84,6.84,0,0,1,362,231.82c-1.7-3.38-1.18-17.61-1.18-17.61S372.55,222.31,374.25,225.69Z"/>
      </g>
      <g class="cls-2">
        <path class="cls-3" d="M60.7,513.74a6.84,6.84,0,1,1-12.24,6.13c-1.7-3.38-1.18-17.61-1.18-17.61S59,510.36,60.7,513.74Z"/>
      </g>
      <g class="cls-2">
        <path class="cls-3" d="M330.28,390.86A6.85,6.85,0,1,1,318,397c-1.69-3.38-1.17-17.62-1.17-17.62S328.59,387.48,330.28,390.86Z"/>
      </g>
      <g class="cls-2">
        <path class="cls-3" d="M323.18,500.55a6.85,6.85,0,0,1-12.24,6.14c-1.7-3.38-1.18-17.62-1.18-17.62S321.48,497.17,323.18,500.55Z"/>
      </g>
      <g class="cls-2">
        <path class="cls-3" d="M283.13,423.94a6.85,6.85,0,1,1-12.24,6.14c-1.69-3.38-1.17-17.62-1.17-17.62S281.44,420.56,283.13,423.94Z"/>
      </g>
      <g class="cls-2">
        <path class="cls-3" d="M369.31,468.44a6.85,6.85,0,1,1-12.24,6.14C355.38,471.2,355.9,457,355.9,457S367.62,465.06,369.31,468.44Z"/>
      </g>
      <g class="cls-2">
        <path class="cls-3" d="M404.86,300.19a6.84,6.84,0,0,1-12.24,6.13c-1.7-3.38-1.17-17.61-1.17-17.61S403.16,296.8,404.86,300.19Z"/>
      </g>
      <g class="cls-2">
        <path class="cls-3" d="M395.57,35a6.85,6.85,0,1,1-12.24,6.14c-1.69-3.38-1.17-17.61-1.17-17.61S393.88,31.62,395.57,35Z"/>
      </g>
      <g class="cls-2">
        <path class="cls-3" d="M323.18,35a6.85,6.85,0,0,1-12.24,6.14c-1.7-3.38-1.18-17.61-1.18-17.61S321.48,31.62,323.18,35Z"/>
      </g>
      <g class="cls-2">
        <path class="cls-3" d="M397.75,106a6.85,6.85,0,1,1-12.24,6.14c-1.69-3.38-1.17-17.62-1.17-17.62S396.06,102.65,397.75,106Z"/>
      </g>
      <g class="cls-2">
        <path class="cls-3" d="M404.86,188.1a6.85,6.85,0,1,1-12.24,6.14c-1.7-3.38-1.17-17.62-1.17-17.62S403.16,184.72,404.86,188.1Z"/>
      </g>
      <g class="cls-2">
        <path class="cls-3" d="M269.55,289.49a6.84,6.84,0,1,1-12.24,6.13c-1.69-3.38-1.17-17.61-1.17-17.61S267.86,286.11,269.55,289.49Z"/>
      </g>
      <g class="cls-2">
        <path class="cls-3" d="M43.57,373.76a6.85,6.85,0,1,1-12.24,6.14c-1.69-3.38-1.17-17.61-1.17-17.61S41.88,370.38,43.57,373.76Z"/>
      </g>
      <g class="cls-2">
        <path class="cls-3" d="M109.15,473.07a6.85,6.85,0,1,1-12.24,6.14c-1.7-3.38-1.17-17.62-1.17-17.62S107.45,469.69,109.15,473.07Z"/>
      </g>
      <g class="cls-2">
        <path class="cls-3" d="M141.79,346.75a6.85,6.85,0,1,1-12.24,6.14c-1.7-3.38-1.17-17.61-1.17-17.61S140.09,343.37,141.79,346.75Z"/>
      </g>
      <g class="cls-2">
        <path class="cls-3" d="M220.38,390.86A6.85,6.85,0,1,1,208.14,397c-1.69-3.38-1.17-17.62-1.17-17.62S218.69,387.48,220.38,390.86Z"/>
      </g>
      <g class="cls-2">
        <path class="cls-3" d="M429.67,503a6.85,6.85,0,1,1-12.24,6.14c-1.7-3.38-1.17-17.62-1.17-17.62S428,499.57,429.67,503Z"/>
      </g>
      <g class="cls-2">
        <path class="cls-3" d="M127.57,403.68a6.84,6.84,0,1,1-12.24,6.13c-1.69-3.38-1.17-17.61-1.17-17.61S125.88,400.3,127.57,403.68Z"/>
      </g>
      <g class="cls-2">
        <path class="cls-3" d="M173.14,445.34a6.84,6.84,0,0,1-12.24,6.13c-1.7-3.38-1.17-17.61-1.17-17.61S171.45,442,173.14,445.34Z"/>
      </g>
      <g class="cls-2">
        <path class="cls-3" d="M230.74,487a6.85,6.85,0,1,1-12.24,6.14c-1.7-3.38-1.17-17.62-1.17-17.62S229,483.66,230.74,487Z"/>
      </g>
    </g>
  </g>
</svg>
